<svg id="Layer_1" data-name="Layer 1" xmlns="http://www.w3.org/2000/svg" viewBox="0 0 200 72"><defs><style>.cls-1,.cls-2{fill:#fff;}.cls-2{stroke:#231f20;stroke-miterlimit:10;}.cls-3{fill:#a4916e;}.cls-4{fill:#3a5e93;}.cls-5{fill:#33619b;}.cls-6,.cls-7{fill:#a4916c;}.cls-7{font-size:10px;font-family:TimesNewRomanPSMT, Times New Roman;}.cls-8{letter-spacing:-0.02em;}</style></defs><rect class="cls-1" width="200" height="72"/><path class="cls-2" d="M63.79,116" transform="translate(0 -58.05)"/><polygon class="cls-3" points="113.9 16.04 170.38 16.04 142.14 3.3 113.9 16.04"/><rect class="cls-3" x="113.33" y="18.74" width="57.46" height="2.94"/><path class="cls-3" d="M113.54,81.54v1a1.73,1.73,0,0,1,1.82,1.12h7.23a2.35,2.35,0,0,1,1.86-1.31v-.81Z" transform="translate(0 -58.05)"/><path class="cls-3" d="M129,81.54v1a1.74,1.74,0,0,1,1.83,1.12h7.22A2.36,2.36,0,0,1,140,82.35v-.81Z" transform="translate(0 -58.05)"/><path class="cls-3" d="M155.49,84.24v1a1.75,1.75,0,0,0-1.83,1.11h-7.22a2.33,2.33,0,0,0-1.86-1.3v-.81Z" transform="translate(0 -58.05)"/><path class="cls-3" d="M144.58,81.54v1a1.73,1.73,0,0,1,1.82,1.12h7.22a2.36,2.36,0,0,1,1.87-1.31v-.81Z" transform="translate(0 -58.05)"/><path class="cls-3" d="M113.54,84.22v1a1.73,1.73,0,0,1,1.82,1.12h7.23A2.35,2.35,0,0,1,124.45,85v-.81Z" transform="translate(0 -58.05)"/><path class="cls-3" d="M116,86.34a86.75,86.75,0,0,1,.83,11.55,29.25,29.25,0,0,1,4.18,1.56s.46-11.76,1-13.11Z" transform="translate(0 -58.05)"/><path class="cls-3" d="M153.06,86.35s-1.08,13.7-1,18.86c0,0-2.73,2.06-3.88,2.73,0,0-.61-20.23-1.18-21.59Z" transform="translate(0 -58.05)"/><path class="cls-3" d="M129.08,84.42v1a1.73,1.73,0,0,1,1.83,1.11h7.22A2.35,2.35,0,0,1,140,85.22v-.8Z" transform="translate(0 -58.05)"/><path class="cls-3" d="M131.51,86.53s1.08,13.7,1,18.86c0,0,2.73,2.06,3.88,2.72,0,0,.61-20.23,1.18-21.58Z" transform="translate(0 -58.05)"/><path class="cls-3" d="M170.79,81.54v1A1.75,1.75,0,0,0,169,83.66h-7.22a2.35,2.35,0,0,0-1.86-1.31v-.81Z" transform="translate(0 -58.05)"/><path class="cls-3" d="M170.79,84.22v1A1.75,1.75,0,0,0,169,86.34h-7.22A2.35,2.35,0,0,0,159.88,85v-.81Z" transform="translate(0 -58.05)"/><path class="cls-3" d="M168.29,86.34a86.75,86.75,0,0,0-.83,11.55,29.25,29.25,0,0,0-4.18,1.56s-.46-11.76-1-13.11Z" transform="translate(0 -58.05)"/><path class="cls-4" d="M144.39,116.86s.81-4.9,12.8-11.59,28.3-7.89,28.82-7.66l-.41-1.21s-13.77-.24-30.83,9c0,0-10.66,6.68-11.36,11.47Z" transform="translate(0 -58.05)"/><path class="cls-4" d="M145.38,117.55s21.2-9.92,45-10.2l-2.19-5.08s-24.13-1.11-39,11.11l-4.6,3.92Z" transform="translate(0 -58.05)"/><path class="cls-4" d="M146.35,118.07l.66.51,45.57-4.84-1.79-4.49S160.42,111,146.35,118.07Z" transform="translate(0 -58.05)"/><polygon class="cls-4" points="147.26 60.97 148.18 62.35 194.77 61.34 193.32 57.42 147.26 60.97"/><polygon class="cls-4" points="148.95 65.06 148.95 62.92 195.46 62.92 196.5 65.34 148.95 65.06"/><path class="cls-5" d="M139.67,116.71s-.81-4.89-12.8-11.58-28.3-7.9-28.82-7.67l.41-1.21s13.77-.23,30.83,9c0,0,10.66,6.68,11.36,11.46Z" transform="translate(0 -58.05)"/><path class="cls-5" d="M138.68,117.41s-21.2-9.92-44.95-10.21l2.19-5.07s24.13-1.11,39,11.11l4.6,3.92Z" transform="translate(0 -58.05)"/><path class="cls-5" d="M137.71,117.92l-.66.52L91.48,113.6l1.79-4.49S123.64,110.89,137.71,117.92Z" transform="translate(0 -58.05)"/><polygon class="cls-5" points="136.8 60.83 135.88 62.21 89.29 61.2 90.73 57.28 136.8 60.83"/><polygon class="cls-5" points="135.11 65.06 135.11 62.92 88.6 62.92 87.56 65.34 135.11 65.06"/><path class="cls-1" d="M134.83,123.16a7.24,7.24,0,0,1,14.46,0" transform="translate(0 -58.05)"/><path class="cls-5" d="M136.47,123.16a5.59,5.59,0,1,1,11.18,0" transform="translate(0 -58.05)"/><path class="cls-1" d="M138.37,123.16a3.79,3.79,0,1,1,7.57,0" transform="translate(0 -58.05)"/><path class="cls-6" d="M5.54,106.9H7.88V74.67H21.39s4.16.87,5,4A7.35,7.35,0,0,1,25,85.24c-1.91,2.37-4.49,3.35-9,4.12v2.07L27.27,107h3.27L18.86,90.85s8-1.79,9.85-7.57-2.11-9.9-6.49-10.62L5.54,72.59Z" transform="translate(0 -58.05)"/><rect class="cls-6" x="31.24" y="14.36" width="25.87" height="2.06"/><rect class="cls-6" x="42.99" y="14.36" width="2.37" height="34.59"/><rect class="cls-6" x="60.89" y="46.86" width="22.43" height="2.09"/><rect class="cls-6" x="60.89" y="14.36" width="2.37" height="34.59"/><rect class="cls-6" x="5.54" y="50.52" width="77.78" height="0.55"/><text class="cls-7" transform="translate(5.54 59.32)">Read,<tspan class="cls-8" x="23.05" y="0"> </tspan><tspan x="25.37" y="0">Think, Learn</tspan></text></svg>